# Blender v3.0.0 OBJ File: ''
# www.blender.org
mtllib h25obj53.mtl
o polySurface5064_polySurfaceShape5081
v 0.142495 1.154125 0.246807
v 0.000000 1.154071 0.000000
v 0.000000 1.154125 0.283511
v 0.247993 1.154125 0.143179
v 0.248901 1.154125 -0.143701
v 0.287236 1.154125 0.000000
v 0.143403 1.154125 -0.248384
v -0.142065 1.154125 -0.246064
v 0.000000 1.154125 -0.285610
v -0.244883 1.154125 -0.141382
v -0.243975 1.154125 0.140859
v -0.281880 1.154125 0.000000
v -0.141157 1.154125 0.244492
v 0.266416 0.224689 0.461450
v 0.461533 0.224689 0.266465
v 0.300420 0.446107 0.520342
v 0.520337 0.446107 0.300415
v -0.266475 0.224689 0.461548
v 0.000000 0.224689 0.532842
v -0.300420 0.446107 0.520342
v 0.000000 0.446107 0.600835
v -0.461714 0.224689 0.266572
v -0.520337 0.446107 0.300415
v -0.462046 0.224689 -0.266763
v -0.533350 0.224689 0.000000
v -0.520337 0.446107 -0.300415
v -0.600835 0.446107 0.000000
v -0.266812 0.224689 -0.462129
v -0.300420 0.446107 -0.520342
v 0.000000 0.446107 -0.600835
v 0.300420 0.446107 -0.520342
v 0.000000 0.224689 -0.533618
v 0.266753 0.224689 -0.462026
v 0.520337 0.446107 -0.300415
v 0.461870 0.224689 -0.266660
v 0.533110 0.224689 0.000000
v 0.600835 0.446107 0.000000
v 0.308550 1.156107 0.178179
v 0.178003 1.156107 0.308354
v 0.315820 1.103331 0.182339
v 0.182192 1.103331 0.315566
v -0.182163 1.103331 0.315518
v 0.000000 1.103331 0.364263
v -0.177959 1.156107 0.308252
v -0.000005 1.156107 0.355908
v -0.315732 1.103331 0.182290
v -0.308389 1.156107 0.178081
v 0.356616 1.156107 0.000034
v 0.365054 1.103331 0.000000
v -0.356396 1.156107 0.000034
v -0.308936 1.156107 -0.178325
v -0.364937 1.103331 0.000000
v -0.316372 1.103331 -0.182656
v 0.178550 1.156107 -0.309233
v 0.309102 1.156107 -0.178428
v 0.182832 1.103331 -0.316675
v 0.316460 1.103331 -0.182710
v -0.182803 1.103331 -0.316621
v -0.178506 1.156107 -0.309136
v -0.000005 1.156107 -0.357104
v 0.000000 1.103331 -0.365732
v 0.520337 0.446107 0.300415
v 0.442114 0.826259 0.255254
v 0.300420 0.446107 0.520342
v 0.255024 0.826259 0.441719
v -0.300420 0.446107 0.520342
v 0.000000 0.446107 0.600835
v -0.255132 0.826259 0.441899
v 0.000000 0.826259 0.509961
v -0.520337 0.446107 0.300415
v -0.442427 0.826259 0.255435
v 0.600835 0.446107 0.000000
v 0.511211 0.826259 0.000000
v -0.520337 0.446107 -0.300415
v -0.600835 0.446107 0.000000
v -0.443691 0.826259 -0.256167
v -0.511626 0.826259 0.000000
v 0.300420 0.446107 -0.520342
v 0.256289 0.826259 -0.443906
v 0.520337 0.446107 -0.300415
v 0.443379 0.826259 -0.255986
v -0.300420 0.446107 -0.520342
v -0.256392 0.826259 -0.444087
v 0.000000 0.446107 -0.600835
v 0.000000 0.826259 -0.512876
v 0.142495 1.154125 0.246807
v 0.178545 1.301006 0.309248
v 0.247993 1.154125 0.143179
v 0.309756 1.301006 0.178838
v -0.141157 1.154125 0.244492
v -0.178081 1.301006 0.308447
v 0.000000 1.154125 0.283511
v 0.000000 1.301006 0.356528
v -0.243975 1.154125 0.140859
v -0.308374 1.301006 0.178037
v -0.308970 1.301006 -0.178384
v -0.356299 1.301006 0.000000
v -0.244883 1.154125 -0.141382
v -0.281880 1.154125 0.000000
v -0.178677 1.301006 -0.309478
v -0.142065 1.154125 -0.246064
v 0.179141 1.301006 -0.310278
v 0.000000 1.301006 -0.357910
v 0.143403 1.154125 -0.248384
v 0.000000 1.154125 -0.285610
v 0.310356 1.301006 -0.179185
v 0.248901 1.154125 -0.143701
v 0.287236 1.154125 0.000000
v 0.358145 1.301006 0.000000
v -0.194653 0.003271 0.337148
v -0.266475 0.224689 0.461548
v -0.337466 0.003271 0.194834
v -0.461714 0.224689 0.266572
v 0.000000 0.003271 0.389077
v 0.000000 0.224689 0.532842
v 0.194531 0.003271 0.336938
v 0.337104 0.003271 0.194629
v 0.266416 0.224689 0.461450
v 0.461533 0.224689 0.266465
v 0.389609 0.003271 0.000000
v 0.533110 0.224689 0.000000
v 0.266753 0.224689 -0.462026
v 0.461870 0.224689 -0.266660
v 0.195200 0.003271 -0.338096
v 0.337773 0.003271 -0.195015
v 0.000000 0.224689 -0.533618
v 0.000000 0.003271 -0.390625
v -0.338135 0.003271 -0.195220
v -0.462046 0.224689 -0.266763
v -0.195322 0.003271 -0.338306
v -0.266812 0.224689 -0.462129
v -0.390093 0.003271 0.000000
v -0.533350 0.224689 0.000000
v -0.533350 0.224689 0.000000
v -0.461714 0.224689 0.266572
v -0.600835 0.446107 0.000000
v -0.520337 0.446107 0.300415
v -0.266812 0.224689 -0.462129
v -0.300420 0.446107 -0.520342
v 0.000000 0.224689 -0.533618
v 0.000000 0.446107 -0.600835
v 0.358145 1.301006 0.000000
v 0.287236 1.154125 0.000000
v 0.365054 1.103331 0.000000
v 0.356616 1.156107 0.000034
v 0.600835 0.446107 0.000000
v 0.511211 0.826259 0.000000
v 0.461870 0.224689 -0.266660
v 0.520337 0.446107 -0.300415
v 0.533110 0.224689 0.000000
v 0.600835 0.446107 0.000000
v 0.533110 0.224689 0.000000
v 0.389609 0.003271 0.000000
v 0.000000 0.224689 0.532842
v 0.266416 0.224689 0.461450
v 0.000000 0.446107 0.600835
v 0.300420 0.446107 0.520342
v 0.194531 0.003271 0.336938
v 0.000000 0.003271 0.000000
v 0.337104 0.003271 0.194629
v 0.000000 0.003271 0.389077
v -0.194653 0.003271 0.337148
v -0.337466 0.003271 0.194834
v 0.389609 0.003271 0.000000
v 0.337773 0.003271 -0.195015
v -0.390093 0.003271 0.000000
v -0.338135 0.003271 -0.195220
v -0.195322 0.003271 -0.338306
v 0.000000 0.003271 -0.390625
v 0.195200 0.003271 -0.338096
v 0.330688 1.304845 0.190762
v 0.190933 1.304860 0.330322
v 0.344687 1.283656 0.199019
v 0.198882 1.283657 0.344487
v 0.398306 1.283656 0.000010
v 0.382026 1.304834 -0.000049
v 0.000190 1.304874 0.381396
v -0.000005 1.283657 0.397637
v -0.190576 1.304884 0.330361
v -0.330371 1.304889 0.190796
v -0.198823 1.283656 0.344375
v -0.344497 1.283656 0.198896
v -0.398037 1.283656 0.000005
v -0.381748 1.304889 -0.000049
v -0.344961 1.283655 -0.199155
v -0.330801 1.304886 -0.191143
v -0.199287 1.283655 -0.345161
v -0.190991 1.304877 -0.331187
v -0.000005 1.283655 -0.398701
v 0.000190 1.304862 -0.382451
v 0.199351 1.283655 -0.345283
v 0.191343 1.304847 -0.331133
v 0.345161 1.283656 -0.199272
v 0.331089 1.304836 -0.191094
v 0.398306 1.283656 0.000010
v 0.382026 1.304834 -0.000049
v 0.178003 1.156107 0.308354
v 0.308550 1.156107 0.178179
v 0.198882 1.283657 0.344487
v 0.344687 1.283656 0.199019
v -0.000005 1.156107 0.355908
v -0.000005 1.283657 0.397637
v -0.177959 1.156107 0.308252
v -0.198823 1.283656 0.344375
v -0.308389 1.156107 0.178081
v -0.344497 1.283656 0.198896
v -0.356396 1.156107 0.000034
v -0.398037 1.283656 0.000005
v -0.308936 1.156107 -0.178325
v -0.344961 1.283655 -0.199155
v -0.178506 1.156107 -0.309136
v -0.199287 1.283655 -0.345161
v -0.000005 1.156107 -0.357104
v -0.000005 1.283655 -0.398701
v 0.178550 1.156107 -0.309233
v 0.199351 1.283655 -0.345283
v 0.309102 1.156107 -0.178428
v 0.345161 1.283656 -0.199272
v 0.356616 1.156107 0.000034
v 0.398306 1.283656 0.000010
v 0.398306 1.283656 0.000010
v 0.356616 1.156107 0.000034
vt 1.884872 0.326708
vt 1.769022 0.393559
vt 1.902790 0.393579
vt 1.835919 0.277753
vt 1.702176 0.277753
vt 1.769047 0.259836
vt 1.653222 0.326708
vt 1.653222 0.460449
vt 1.635304 0.393577
vt 1.702176 0.509404
vt 1.835919 0.509404
vt 1.769047 0.527321
vt 1.884872 0.460449
vt 0.833333 0.860727
vt 0.916668 0.860727
vt 0.833333 0.750781
vt 0.916668 0.750781
vt 0.666668 0.860727
vt 0.749999 0.860727
vt 0.666668 0.750781
vt 0.749999 0.750781
vt 0.583333 0.860727
vt 0.583333 0.750781
vt 0.416668 0.860727
vt 0.500000 0.860727
vt 0.416668 0.750781
vt 0.500000 0.750781
vt 0.333333 0.860727
vt 0.333333 0.750781
vt 0.249999 0.750781
vt 0.166668 0.750781
vt 0.249999 0.860727
vt 0.166668 0.860727
vt 0.083333 0.750781
vt 0.083333 0.860727
vt 1.000000 0.860727
vt 1.000000 0.750781
vt 0.916668 0.391194
vt 0.833333 0.391194
vt 0.916668 0.416572
vt 0.833333 0.416572
vt 0.666668 0.416572
vt 0.749999 0.416572
vt 0.666668 0.391194
vt 0.749999 0.391194
vt 0.583333 0.416572
vt 0.583333 0.391194
vt 1.000000 0.391194
vt 1.000000 0.416572
vt 0.500000 0.391194
vt 0.416668 0.391194
vt 0.500000 0.416572
vt 0.416668 0.416572
vt 0.166668 0.391194
vt 0.083333 0.391194
vt 0.166668 0.416572
vt 0.083333 0.416572
vt 0.333333 0.416572
vt 0.333333 0.391194
vt 0.249999 0.391194
vt 0.249999 0.416572
vt 0.916668 0.750781
vt 0.916668 0.565321
vt 0.833333 0.750781
vt 0.833333 0.565321
vt 0.666668 0.750781
vt 0.749999 0.750781
vt 0.666668 0.565321
vt 0.749999 0.565321
vt 0.583333 0.750781
vt 0.583333 0.565321
vt 1.000000 0.750781
vt 1.000000 0.565321
vt 0.416668 0.750781
vt 0.500000 0.750781
vt 0.416668 0.565321
vt 0.500000 0.565321
vt 0.166668 0.750781
vt 0.166668 0.565321
vt 0.083333 0.750781
vt 0.083333 0.565321
vt 0.333333 0.750781
vt 0.333333 0.565321
vt 0.249999 0.750781
vt 0.249999 0.565321
vt 0.833333 0.225860
vt 0.833333 0.303307
vt 0.916668 0.225860
vt 0.916668 0.303307
vt 0.666668 0.225860
vt 0.666668 0.303307
vt 0.749999 0.225860
vt 0.749999 0.303307
vt 0.583333 0.225860
vt 0.583333 0.303307
vt 0.416668 0.303307
vt 0.500000 0.303307
vt 0.416668 0.225860
vt 0.500000 0.225860
vt 0.333333 0.303307
vt 0.333333 0.225860
vt 0.166668 0.303307
vt 0.249999 0.303307
vt 0.166668 0.225860
vt 0.249999 0.225860
vt 0.083333 0.303307
vt 0.083333 0.225860
vt 1.000000 0.225860
vt 1.000000 0.303307
vt 0.666668 0.986015
vt 0.666668 0.860727
vt 0.583333 0.986015
vt 0.583333 0.860727
vt 0.749999 0.986015
vt 0.749999 0.860727
vt 0.833333 0.986015
vt 0.916668 0.986015
vt 0.833333 0.860727
vt 0.916668 0.860727
vt 1.000000 0.986015
vt 1.000000 0.860727
vt 0.166668 0.860727
vt 0.083333 0.860727
vt 0.166668 0.986015
vt 0.083333 0.986015
vt 0.249999 0.860727
vt 0.249999 0.986015
vt 0.416668 0.986015
vt 0.416668 0.860727
vt 0.333333 0.986015
vt 0.333333 0.860727
vt 0.500000 0.986015
vt 0.500000 0.860727
vt 0.500000 0.860727
vt 0.583333 0.860727
vt 0.500000 0.750781
vt 0.583333 0.750781
vt 0.333333 0.860727
vt 0.333333 0.750781
vt 0.249999 0.860727
vt 0.249999 0.750781
vt 0.000000 0.303307
vt 0.000000 0.225860
vt 0.000000 0.416572
vt 0.000000 0.391194
vt 0.000000 0.750781
vt 0.000000 0.565321
vt 0.083333 0.860727
vt 0.083333 0.750781
vt 0.000000 0.860727
vt 0.000000 0.750781
vt 0.000000 0.860727
vt 0.000000 0.986015
vt 0.749999 0.860727
vt 0.833333 0.860727
vt 0.749999 0.750781
vt 0.833333 0.750781
vt 1.097846 0.293058
vt 1.256527 0.384672
vt 1.164912 0.225992
vt 1.073298 0.384674
vt 1.097846 0.476287
vt 1.164912 0.543354
vt 1.256527 0.201443
vt 1.348143 0.225992
vt 1.256527 0.567903
vt 1.348143 0.543354
vt 1.415209 0.476287
vt 1.439758 0.384672
vt 1.415209 0.293058
vt 0.916668 0.314792
vt 0.833333 0.314792
vt 0.916668 0.327476
vt 0.833333 0.327476
vt 1.000000 0.327476
vt 1.000000 0.314792
vt 0.749999 0.314792
vt 0.749999 0.327476
vt 0.666668 0.314792
vt 0.583333 0.314792
vt 0.666668 0.327476
vt 0.583333 0.327476
vt 0.500000 0.327476
vt 0.500000 0.314792
vt 0.416668 0.327476
vt 0.416668 0.314792
vt 0.333333 0.327476
vt 0.333333 0.314792
vt 0.249999 0.327476
vt 0.249999 0.314792
vt 0.166668 0.327476
vt 0.166668 0.314792
vt 0.083333 0.327476
vt 0.083333 0.314792
vt 0.000000 0.327476
vt 0.000000 0.314792
vt 0.833333 0.391194
vt 0.916668 0.391194
vt 0.833333 0.327476
vt 0.916668 0.327476
vt 0.749999 0.391194
vt 0.749999 0.327476
vt 0.666668 0.391194
vt 0.666668 0.327476
vt 0.583333 0.391194
vt 0.583333 0.327476
vt 0.500000 0.391194
vt 0.500000 0.327476
vt 0.416668 0.391194
vt 0.416668 0.327476
vt 0.333333 0.391194
vt 0.333333 0.327476
vt 0.249999 0.391194
vt 0.249999 0.327476
vt 0.166668 0.391194
vt 0.166668 0.327476
vt 0.083333 0.391194
vt 0.083333 0.327476
vt 1.000000 0.391194
vt 1.000000 0.327476
vt 0.000000 0.327476
vt 0.000000 0.391194
vn -0.3231 0.7573 -0.5675
vn 0.0000 1.0000 -0.0000
vn 0.0036 0.7577 -0.6525
vn -0.5642 0.7570 -0.3295
vn -0.5656 0.7571 0.3269
vn -0.6535 0.7570 -0.0017
vn -0.3245 0.7575 0.5665
vn 0.3293 0.7584 0.5625
vn 0.0035 0.7580 0.6523
vn 0.5658 0.7587 0.3229
vn 0.5645 0.7585 -0.3255
vn 0.6514 0.7587 -0.0017
vn 0.3280 0.7582 -0.5635
vn 0.4561 -0.4093 0.7902
vn 0.7901 -0.4090 0.4566
vn 0.4994 0.0365 0.8656
vn 0.8651 0.0360 0.5002
vn -0.4559 -0.4089 0.7905
vn 0.0002 -0.4093 0.9124
vn -0.4992 0.0364 0.8657
vn 0.0001 0.0366 0.9993
vn -0.7902 -0.4084 0.4569
vn -0.8651 0.0358 0.5004
vn -0.7912 -0.4072 -0.4563
vn -0.9131 -0.4078 0.0006
vn -0.8658 0.0343 -0.4992
vn -0.9994 0.0351 0.0008
vn -0.4568 -0.4070 -0.7910
vn -0.5000 0.0338 -0.8654
vn 0.0002 0.0337 -0.9994
vn 0.5002 0.0340 -0.8653
vn 0.0002 -0.4070 -0.9134
vn 0.4570 -0.4073 -0.7907
vn 0.8659 0.0345 -0.4990
vn 0.7910 -0.4079 -0.4560
vn 0.9128 -0.4085 0.0006
vn 0.9994 0.0353 0.0008
vn 0.8498 -0.1883 0.4923
vn 0.4902 -0.1885 0.8510
vn 0.7797 0.4333 0.4520
vn 0.4500 0.4328 0.7812
vn -0.4496 0.4335 0.7809
vn 0.0001 0.4329 0.9014
vn -0.4906 -0.1882 0.8508
vn -0.0003 -0.1885 0.9821
vn -0.7791 0.4345 0.4519
vn -0.8500 -0.1877 0.4921
vn 0.9822 -0.1879 0.0015
vn 0.9009 0.4341 0.0020
vn -0.9823 -0.1871 0.0015
vn -0.8515 -0.1866 -0.4899
vn -0.9002 0.4355 0.0019
vn -0.7801 0.4363 -0.4484
vn 0.4917 -0.1868 -0.8505
vn 0.8513 -0.1873 -0.4901
vn 0.4507 0.4361 -0.7789
vn 0.7806 0.4351 -0.4487
vn -0.4506 0.4367 -0.7786
vn -0.4921 -0.1864 -0.8503
vn -0.0003 -0.1864 -0.9825
vn -0.0002 0.4366 -0.8996
vn 0.8206 0.3177 0.4751
vn 0.4732 0.3182 0.8215
vn -0.4733 0.3182 0.8214
vn 0.0001 0.3183 0.9480
vn -0.8205 0.3177 0.4752
vn 0.9484 0.3171 0.0014
vn -0.8658 0.0343 -0.4991
vn -0.9994 0.0350 0.0008
vn -0.8221 0.3165 -0.4733
vn -0.9484 0.3170 0.0014
vn 0.5002 0.0339 -0.8653
vn 0.4751 0.3160 -0.8212
vn 0.8221 0.3165 -0.4732
vn -0.4750 0.3160 -0.8213
vn 0.0001 0.0337 -0.9994
vn 0.0001 0.3159 -0.9488
vn -0.4050 0.5762 -0.7099
vn -0.7095 0.5718 -0.4120
vn 0.3280 0.7582 -0.5636
vn 0.4072 0.5860 -0.7006
vn 0.0022 0.5814 -0.8136
vn 0.5645 0.7586 -0.3255
vn 0.7002 0.5888 -0.4039
vn 0.7029 0.5869 0.4019
vn 0.8081 0.5891 -0.0018
vn 0.4099 0.5827 0.7018
vn -0.4078 0.5727 0.7111
vn 0.0038 0.5775 0.8164
vn 0.0036 0.7579 0.6523
vn -0.7116 0.5697 0.4112
vn -0.8221 0.5694 -0.0018
vn -0.3170 -0.7724 0.5503
vn -0.5496 -0.7724 0.3183
vn 0.0002 -0.7725 0.6350
vn 0.0002 -0.4092 0.9124
vn 0.3174 -0.7725 0.5501
vn 0.5497 -0.7725 0.3180
vn 0.6351 -0.7724 0.0008
vn 0.7910 -0.4078 -0.4560
vn 0.3181 -0.7724 -0.5498
vn 0.5504 -0.7724 -0.3169
vn 0.0002 -0.7723 -0.6352
vn -0.5504 -0.7723 -0.3171
vn -0.7912 -0.4073 -0.4563
vn -0.3178 -0.7723 -0.5500
vn -0.4568 -0.4069 -0.7910
vn -0.6352 -0.7724 0.0008
vn -0.9131 -0.4077 0.0006
vn -0.8651 0.0358 0.5003
vn -0.4569 -0.4069 -0.7910
vn -0.8221 0.5693 -0.0018
vn -0.6535 0.7569 -0.0017
vn 0.9822 -0.1878 0.0015
vn 0.9128 -0.4085 0.0005
vn 0.0002 0.0366 0.9993
vn 0.3174 -0.7725 0.5500
vn 0.0000 -1.0000 -0.0000
vn 0.5497 -0.7724 0.3180
vn 0.0003 -0.7725 0.6350
vn 0.5505 -0.7724 -0.3169
vn -0.6351 -0.7724 0.0008
vn -0.5504 -0.7724 -0.3171
vn 0.0003 -0.7723 -0.6352
vn 0.4162 0.8769 0.2404
vn 0.2393 0.8782 0.4140
vn 0.8526 -0.1714 0.4937
vn 0.4917 -0.1714 0.8537
vn 0.9852 -0.1712 0.0013
vn 0.4819 0.8763 0.0005
vn 0.0005 0.8798 0.4754
vn -0.0004 -0.1713 0.9852
vn -0.2358 0.8812 0.4098
vn -0.4078 0.8820 0.2362
vn -0.4924 -0.1711 0.8534
vn -0.8529 -0.1707 0.4934
vn -0.9854 -0.1705 0.0012
vn -0.4711 0.8821 0.0005
vn -0.8540 -0.1705 -0.4916
vn -0.4092 0.8814 -0.2361
vn -0.4935 -0.1705 -0.8528
vn -0.2373 0.8801 -0.4112
vn -0.0005 -0.1707 -0.9853
vn 0.0004 0.8785 -0.4777
vn 0.4929 -0.1708 -0.8532
vn 0.2407 0.8772 -0.4155
vn 0.8537 -0.1710 -0.4919
vn 0.4175 0.8763 -0.2403
vn 0.9852 -0.1712 0.0012
vn 0.4818 0.8763 0.0004
vn 0.8526 -0.1713 0.4937
vn -0.4924 -0.1710 0.8534
vn -0.8501 -0.1877 0.4921
vn -0.8529 -0.1708 0.4934
vn -0.9853 -0.1705 0.0012
vn -0.0004 -0.1707 -0.9853
vn 0.4916 -0.1867 -0.8505
vn 0.9822 -0.1879 0.0016
usemtl nold_house_setl_colladafxShader12
s 1
f 1/1/1 2/2/2 3/3/3
f 4/4/4 2/2/2 1/1/1
f 5/5/5 2/2/2 6/6/6
f 7/7/7 2/2/2 5/5/5
f 8/8/8 2/2/2 9/9/9
f 10/10/10 2/2/2 8/8/8
f 11/11/11 2/2/2 12/12/12
f 13/13/13 2/2/2 11/11/11
f 2/2/2 7/7/7 9/9/9
f 2/2/2 4/4/4 6/6/6
f 14/14/14 15/15/15 16/16/16
f 16/16/16 15/15/15 17/17/17
f 18/18/18 19/19/19 20/20/20
f 20/20/20 19/19/19 21/21/21
f 22/22/22 18/18/18 23/23/23
f 23/23/23 18/18/18 20/20/20
f 24/24/24 25/25/25 26/26/26
f 26/26/26 25/25/25 27/27/27
f 24/24/24 26/26/26 28/28/28
f 28/28/28 26/26/26 29/29/29
f 30/30/30 31/31/31 32/32/32
f 32/32/32 31/31/31 33/33/33
f 31/31/31 34/34/34 33/33/33
f 33/33/33 34/34/34 35/35/35
f 15/15/15 36/36/36 17/17/17
f 17/17/17 36/36/36 37/37/37
f 38/38/38 39/39/39 40/40/40
f 40/40/40 39/39/39 41/41/41
f 42/42/42 43/43/43 44/44/44
f 44/44/44 43/43/43 45/45/45
f 42/42/42 44/44/44 46/46/46
f 46/46/46 44/44/44 47/47/47
f 38/38/38 40/40/40 48/48/48
f 48/48/48 40/40/40 49/49/49
f 50/50/50 51/51/51 52/52/52
f 52/52/52 51/51/51 53/53/53
f 54/54/54 55/55/55 56/56/56
f 56/56/56 55/55/55 57/57/57
f 53/53/53 51/51/51 58/58/58
f 58/58/58 51/51/51 59/59/59
f 60/60/60 54/54/54 61/61/61
f 61/61/61 54/54/54 56/56/56
f 62/62/17 63/63/62 64/64/16
f 64/64/16 63/63/62 65/65/63
f 66/66/20 67/67/21 68/68/64
f 68/68/64 67/67/21 69/69/65
f 70/70/23 66/66/20 71/71/66
f 71/71/66 66/66/20 68/68/64
f 72/72/37 73/73/67 62/62/17
f 62/62/17 73/73/67 63/63/62
f 74/74/68 75/75/69 76/76/70
f 76/76/70 75/75/69 77/77/71
f 78/78/72 79/79/73 80/80/34
f 80/80/34 79/79/73 81/81/74
f 82/82/29 74/74/68 83/83/75
f 83/83/75 74/74/68 76/76/70
f 84/84/76 85/85/77 78/78/72
f 78/78/72 85/85/77 79/79/73
f 86/86/1 87/87/78 88/88/4
f 88/88/4 87/87/78 89/89/79
f 90/90/80 91/91/81 92/92/3
f 92/92/3 91/91/81 93/93/82
f 94/94/83 95/95/84 90/90/80
f 90/90/80 95/95/84 91/91/81
f 96/96/85 97/97/86 98/98/10
f 98/98/10 97/97/86 99/99/12
f 100/100/87 96/96/85 101/101/8
f 101/101/8 96/96/85 98/98/10
f 102/102/88 103/103/89 104/104/7
f 104/104/7 103/103/89 105/105/90
f 106/106/91 102/102/88 107/107/5
f 107/107/5 102/102/88 104/104/7
f 88/88/4 89/89/79 108/108/6
f 108/108/6 89/89/79 109/109/92
f 110/110/93 111/111/18 112/112/94
f 112/112/94 111/111/18 113/113/22
f 110/110/93 114/114/95 111/111/18
f 111/111/18 114/114/95 115/115/96
f 116/116/97 117/117/98 118/118/14
f 118/118/14 117/117/98 119/119/15
f 117/117/98 120/120/99 119/119/15
f 119/119/15 120/120/99 121/121/36
f 122/122/33 123/123/100 124/124/101
f 124/124/101 123/123/100 125/125/102
f 126/126/32 122/122/33 127/127/103
f 127/127/103 122/122/33 124/124/101
f 128/128/104 129/129/105 130/130/106
f 130/130/106 129/129/105 131/131/107
f 132/132/108 133/133/109 128/128/104
f 128/128/104 133/133/109 129/129/105
f 97/97/86 95/95/84 99/99/12
f 99/99/12 95/95/84 94/94/83
f 47/47/47 50/50/50 46/46/46
f 46/46/46 50/50/50 52/52/52
f 75/75/69 70/70/23 77/77/71
f 77/77/71 70/70/23 71/71/66
f 134/134/25 135/135/22 136/136/69
f 136/136/69 135/135/22 137/137/110
f 112/112/94 113/113/22 132/132/108
f 132/132/108 113/113/22 133/133/109
f 103/103/89 100/100/87 105/105/90
f 105/105/90 100/100/87 101/101/8
f 58/58/58 59/59/59 61/61/61
f 61/61/61 59/59/59 60/60/60
f 84/84/76 82/82/29 85/85/77
f 85/85/77 82/82/29 83/83/75
f 138/138/111 139/139/29 140/140/32
f 140/140/32 139/139/29 141/141/76
f 130/130/106 131/131/107 127/127/103
f 127/127/103 131/131/107 126/126/32
f 106/106/91 107/107/5 142/142/112
f 142/142/112 107/107/5 143/143/113
f 57/57/57 55/55/55 144/144/49
f 144/144/49 55/55/55 145/145/114
f 80/80/34 81/81/74 146/146/37
f 146/146/37 81/81/74 147/147/67
f 148/148/35 149/149/34 150/150/36
f 150/150/36 149/149/34 151/151/37
f 123/123/100 152/152/115 125/125/102
f 125/125/102 152/152/115 153/153/99
f 92/92/3 93/93/82 86/86/1
f 86/86/1 93/93/82 87/87/78
f 41/41/41 39/39/39 43/43/43
f 43/43/43 39/39/39 45/45/45
f 64/64/16 65/65/63 67/67/21
f 67/67/21 65/65/63 69/69/65
f 154/154/19 155/155/14 156/156/116
f 156/156/116 155/155/14 157/157/16
f 114/114/95 116/116/97 115/115/96
f 115/115/96 116/116/97 118/118/14
f 2/2/2 10/10/10 12/12/12
f 2/2/2 13/13/13 3/3/3
f 158/158/117 159/159/118 160/160/119
f 159/159/118 158/158/117 161/161/120
f 159/159/118 161/161/120 162/162/93
f 159/159/118 162/162/93 163/163/94
f 159/159/118 164/164/99 160/160/119
f 164/164/99 159/159/118 165/165/121
f 163/163/94 166/166/122 159/159/118
f 166/166/122 167/167/123 159/159/118
f 167/167/123 168/168/106 159/159/118
f 168/168/106 169/169/124 159/159/118
f 169/169/124 170/170/101 159/159/118
f 170/170/101 165/165/121 159/159/118
f 171/171/125 172/172/126 173/173/127
f 173/173/127 172/172/126 174/174/128
f 173/173/127 175/175/129 171/171/125
f 171/171/125 175/175/129 176/176/130
f 172/172/126 177/177/131 174/174/128
f 174/174/128 177/177/131 178/178/132
f 179/179/133 180/180/134 181/181/135
f 181/181/135 180/180/134 182/182/136
f 181/181/135 178/178/132 179/179/133
f 179/179/133 178/178/132 177/177/131
f 182/182/136 180/180/134 183/183/137
f 183/183/137 180/180/134 184/184/138
f 185/185/139 186/186/140 187/187/141
f 187/187/141 186/186/140 188/188/142
f 186/186/140 185/185/139 184/184/138
f 184/184/138 185/185/139 183/183/137
f 187/187/141 188/188/142 189/189/143
f 189/189/143 188/188/142 190/190/144
f 191/191/145 192/192/146 193/193/147
f 193/193/147 192/192/146 194/194/148
f 192/192/146 191/191/145 190/190/144
f 190/190/144 191/191/145 189/189/143
f 193/193/147 194/194/148 195/195/149
f 195/195/149 194/194/148 196/196/150
f 197/197/39 198/198/38 199/199/128
f 199/199/128 198/198/38 200/200/151
f 201/201/45 202/202/132 203/203/44
f 203/203/44 202/202/132 204/204/152
f 203/203/44 204/204/152 205/205/153
f 205/205/153 204/204/152 206/206/154
f 207/207/50 208/208/155 209/209/51
f 209/209/51 208/208/155 210/210/139
f 209/209/51 210/210/139 211/211/59
f 211/211/59 210/210/139 212/212/141
f 213/213/60 214/214/156 215/215/157
f 215/215/157 214/214/156 216/216/145
f 215/215/157 216/216/145 217/217/55
f 217/217/55 216/216/145 218/218/147
f 198/198/38 219/219/48 200/200/151
f 200/200/151 219/219/48 220/220/129
f 205/205/153 206/206/154 207/207/50
f 207/207/50 206/206/154 208/208/155
f 211/211/59 212/212/141 213/213/60
f 213/213/60 212/212/141 214/214/156
f 218/218/147 221/221/129 217/217/55
f 217/217/55 221/221/129 222/222/158
f 201/201/45 197/197/39 202/202/132
f 202/202/132 197/197/39 199/199/128
f 190/190/144 188/188/142 103/103/89
f 103/103/89 188/188/142 100/100/87
f 188/188/142 186/186/140 100/100/87
f 100/100/87 186/186/140 96/96/85
f 186/186/140 184/184/138 96/96/85
f 96/96/85 184/184/138 97/97/86
f 95/95/84 97/97/86 180/180/134
f 180/180/134 97/97/86 184/184/138
f 95/95/84 180/180/134 91/91/81
f 91/91/81 180/180/134 179/179/133
f 91/91/81 179/179/133 93/93/82
f 93/93/82 179/179/133 177/177/131
f 93/93/82 177/177/131 87/87/78
f 87/87/78 177/177/131 172/172/126
f 87/87/78 172/172/126 89/89/79
f 89/89/79 172/172/126 171/171/125
f 89/89/79 171/171/125 109/109/92
f 109/109/92 171/171/125 176/176/130
f 196/196/150 194/194/148 142/142/112
f 142/142/112 194/194/148 106/106/91
f 194/194/148 192/192/146 106/106/91
f 106/106/91 192/192/146 102/102/88
f 192/192/146 190/190/144 102/102/88
f 102/102/88 190/190/144 103/103/89
f 65/65/63 41/41/41 69/69/65
f 69/69/65 41/41/41 43/43/43
f 41/41/41 65/65/63 40/40/40
f 40/40/40 65/65/63 63/63/62
f 40/40/40 63/63/62 49/49/49
f 49/49/49 63/63/62 73/73/67
f 81/81/74 57/57/57 147/147/67
f 147/147/67 57/57/57 144/144/49
f 57/57/57 81/81/74 56/56/56
f 56/56/56 81/81/74 79/79/73
f 61/61/61 56/56/56 85/85/77
f 85/85/77 56/56/56 79/79/73
f 83/83/75 58/58/58 85/85/77
f 85/85/77 58/58/58 61/61/61
f 53/53/53 58/58/58 76/76/70
f 76/76/70 58/58/58 83/83/75
f 52/52/52 53/53/53 77/77/71
f 77/77/71 53/53/53 76/76/70
f 46/46/46 52/52/52 71/71/66
f 71/71/66 52/52/52 77/77/71
f 42/42/42 46/46/46 68/68/64
f 68/68/64 46/46/46 71/71/66
f 69/69/65 43/43/43 68/68/64
f 68/68/64 43/43/43 42/42/42
